<?xml version="1.0" encoding="UTF-8"?>
<svg xmlns="http://www.w3.org/2000/svg" viewBox="0 0 200 320" width="200" height="320">
<!-- DESIGN HYPOTHESIS (cast level, artist_3 / Pell Karo).
Persona: Pell Karo, maker of hard-enamel lapel pins and die-cut vinyl stickers.
Influences: hard-enamel pins, cut-vinyl stickers, and mid-century transit and park
pictograms. Every creature is one bold, die-cut-clean pictogram silhouette. The
white halo and dark keyline become a polished metal rim around poured currentColor
enamel. At 18 to 32 px, the cast bets on whole-body gesture, a purpose-built bottom
edge, and one oversized enamel eye pair. Interiors stay nearly empty. Machine bodies
use hard rectangles; organic bodies use curves. Frame 2 swings the whole pin so the
silhouette communicates motion.
LEGGITE: A sly standing centipede curves as a narrow S-column and reverses its whole undulation to skitter. -->
<defs>
	<g id="leggite-f1-shapes">
		<path d="M78,30 Q136,70 92,120 Q52,166 108,210 Q142,240 102,286 L66,286 Q96,244 62,214 Q22,170 66,118 Q108,72 60,48 Z"/>
		<polygon points="72,86 36,68 66,102"/><polygon points="98,112 150,92 102,130"/>
		<polygon points="58,154 20,150 60,172"/><polygon points="82,190 140,178 90,208"/>
		<polygon points="74,230 28,238 80,248"/><polygon points="102,254 150,266 98,270"/>
		<polygon points="68,278 50,300 82,284"/><polygon points="98,278 120,300 88,284"/></g>
	<g id="leggite-f1-face">
		<ellipse cx="70" cy="54" rx="13" ry="10" fill="#ffffff"/><ellipse cx="98" cy="62" rx="13" ry="10" fill="#ffffff"/>
		<circle cx="75" cy="57" r="6" fill="#141422"/><circle cx="103" cy="65" r="6" fill="#141422"/>
		<polygon points="56,42 80,47 76,52" fill="#141422"/></g>
	<g id="leggite-f1-draw">
		<use href="#leggite-f1-shapes" fill="#ffffff" stroke="#ffffff" stroke-width="28" stroke-linejoin="round" stroke-linecap="round"/>
		<use href="#leggite-f1-shapes" fill="#141422" stroke="#141422" stroke-width="20" stroke-linejoin="round" stroke-linecap="round"/>
		<use href="#leggite-f1-shapes" fill="currentColor"/>
		<use href="#leggite-f1-face"/>
	</g>
	<g id="leggite-f2-shapes">
		<path d="M122,30 Q64,70 108,120 Q148,166 92,210 Q58,240 98,286 L134,286 Q104,244 138,214 Q178,170 134,118 Q92,72 140,48 Z"/>
		<polygon points="128,86 164,68 134,102"/><polygon points="102,112 50,92 98,130"/>
		<polygon points="142,154 180,150 140,172"/><polygon points="118,190 60,178 110,208"/>
		<polygon points="126,230 172,238 120,248"/><polygon points="98,254 50,266 102,270"/>
		<polygon points="132,278 150,300 118,284"/><polygon points="102,278 80,300 112,284"/></g>
	<g id="leggite-f2-face">
		<ellipse cx="102" cy="62" rx="13" ry="10" fill="#ffffff"/><ellipse cx="130" cy="54" rx="13" ry="10" fill="#ffffff"/>
		<circle cx="97" cy="65" r="6" fill="#141422"/><circle cx="125" cy="57" r="6" fill="#141422"/>
		<polygon points="120,47 144,42 124,52" fill="#141422"/></g>
	<g id="leggite-f2-draw">
		<use href="#leggite-f2-shapes" fill="#ffffff" stroke="#ffffff" stroke-width="28" stroke-linejoin="round" stroke-linecap="round"/>
		<use href="#leggite-f2-shapes" fill="#141422" stroke="#141422" stroke-width="20" stroke-linejoin="round" stroke-linecap="round"/>
		<use href="#leggite-f2-shapes" fill="currentColor"/>
		<use href="#leggite-f2-face"/>
	</g>
	<symbol id="leggite-frame1" viewBox="0 0 200 320"><use href="#leggite-f1-draw"/></symbol>
	<symbol id="leggite-frame2" viewBox="0 0 200 320"><use href="#leggite-f2-draw"/></symbol>
	<symbol id="leggite-head" viewBox="0 0 120 120"><g transform="translate(-30,-8)"><use href="#leggite-f1-draw"/></g></symbol>
	<symbol id="leggite-silhouette1" viewBox="0 0 200 320"><use href="#leggite-f1-shapes" fill="#141422"/></symbol>
	<symbol id="leggite-silhouette2" viewBox="0 0 200 320"><use href="#leggite-f2-shapes" fill="#141422"/></symbol>
</defs>
<!-- PREVIEW: ignored by generator -->
<rect x="0" y="0" width="200" height="320" fill="#1a1a2e"/>
<use href="#leggite-frame1" width="100" height="160" x="0" y="0" style="color:#ff5a5f"/>
<use href="#leggite-frame2" width="100" height="160" x="100" y="0" style="color:#4fd8ff"/>
</svg>
